<?xml version="1.0" encoding="utf-8"?>
<!-- Generator: Adobe Illustrator 24.0.1, SVG Export Plug-In . SVG Version: 6.00 Build 0)  -->
<svg version="1.1" id="Capa_1" xmlns="http://www.w3.org/2000/svg" xmlns:xlink="http://www.w3.org/1999/xlink" x="0px" y="0px"
	 viewBox="0 0 512 512" style="enable-background:new 0 0 512 512;" xml:space="preserve">
<style type="text/css">
	.st0{fill:#F6A200;}
</style>
<g>
	<path class="st0" d="M482,25H30C13.5,25,0,38.5,0,55v298c0,16.5,13.5,30,30,30h147v74H96c-8.3,0-15,6.7-15,15s6.7,15,15,15h320
		c8.3,0,15-6.7,15-15s-6.7-15-15-15h-81v-74h147c16.5,0,30-13.5,30-30V55C512,38.5,498.5,25,482,25z M305,457h-98v-74h98V457z
		 M482,353c-13.2,0-441.5,0-452,0V55h452C482,359.5,482.1,353,482,353z"/>
</g>
</svg>
