<?xml version="1.0" encoding="utf-8"?>
<!-- Generator: Adobe Illustrator 24.0.1, SVG Export Plug-In . SVG Version: 6.00 Build 0)  -->
<svg version="1.1" id="Capa_1" xmlns="http://www.w3.org/2000/svg" xmlns:xlink="http://www.w3.org/1999/xlink" x="0px" y="0px"
	 viewBox="0 0 477.9 477.9" style="enable-background:new 0 0 477.9 477.9;" xml:space="preserve">
<style type="text/css">
	.st0{fill:#F6A200;}
</style>
<g>
	<g>
		<path class="st0" d="M238.9,0C107,0,0,107,0,238.9s107,238.9,238.9,238.9s238.9-107,238.9-238.9C477.7,107,370.8,0.1,238.9,0z
			 M238.9,443.7c-113.1,0-204.8-91.7-204.8-204.8S125.8,34.1,238.9,34.1s204.8,91.7,204.8,204.8C443.6,352,352,443.6,238.9,443.7z"
			/>
	</g>
</g>
<g>
	<g>
		<path class="st0" d="M390,238.9c0-9.4-7.6-17.1-17.1-17.1H253.5V102.4c0-9.4-7.6-17.1-17.1-17.1s-17.1,7.6-17.1,17.1v136.5
			c0,9.4,7.6,17.1,17.1,17.1h136.5C382.4,256,390,248.4,390,238.9z"/>
	</g>
</g>
</svg>
