<?xml version="1.0" encoding="utf-8"?>
<!-- Generator: Adobe Illustrator 24.0.1, SVG Export Plug-In . SVG Version: 6.00 Build 0)  -->
<svg version="1.1" id="Capa_1" xmlns="http://www.w3.org/2000/svg" xmlns:xlink="http://www.w3.org/1999/xlink" x="0px" y="0px"
	 viewBox="0 0 642 642" style="enable-background:new 0 0 642 642;" xml:space="preserve">
<style type="text/css">
	.st0{fill:#2500BF;}
	.st1{fill:#FFFFFF;}
</style>
<g>
	<g id="person">
		<path class="st0" d="M-338,282c52,0,94.5-42.5,94.5-94.5S-286,93-338,93s-94.5,42.5-94.5,94.5S-390,282-338,282z M-338,329.2
			c-63.8,0-189,30.7-189,94.5V471h378v-47.2C-149,360-274.2,329.2-338,329.2z"/>
	</g>
</g>
<g>
	<g id="search">
		<path class="st1" d="M401.1,358.1H384l-6.4-6.4c21.4-23.5,34.2-55.6,34.2-89.8c0-76.9-62-138.9-138.9-138.9S134,185,134,261.9
			s62,138.9,138.9,138.9c34.2,0,66.3-12.8,89.8-34.2l6.4,6.4v17.1L475.9,497l32.1-32.1L401.1,358.1z M272.9,358.1
			c-53.4,0-96.2-42.7-96.2-96.2s42.7-96.2,96.2-96.2s96.2,42.7,96.2,96.2S326.3,358.1,272.9,358.1z"/>
	</g>
</g>
</svg>
