<?xml version="1.0" encoding="utf-8"?>
<!-- Generator: Adobe Illustrator 23.0.6, SVG Export Plug-In . SVG Version: 6.00 Build 0)  -->
<svg version="1.1" id="Capa_1" xmlns="http://www.w3.org/2000/svg" xmlns:xlink="http://www.w3.org/1999/xlink" x="0px" y="0px"
	 viewBox="0 0 181.96 96.57" style="enable-background:new 0 0 181.96 96.57;" xml:space="preserve">
<style type="text/css">
	.st0{fill:#FFFFFF;}
</style>
<path class="st0" d="M32.74,47.23c0.94,1.31,2.06,2.49,3.19,3.63c1.13,1.15,2.31,2.25,3.53,3.31c2.42,2.13,4.96,4.12,7.55,6.04
	c2.6,1.9,5.2,3.81,7.95,5.47c2.74,1.67,5.58,3.16,8.5,4.48c11.69,5.28,24.46,7.95,37.27,8.4c12.81,0.58,25.72-0.95,38.11-4.34
	c6.2-1.68,12.27-3.88,18.04-6.71c5.8-2.77,11.3-6.23,16.12-10.56c-4.5,4.67-9.96,8.34-15.67,11.44c-5.75,3.04-11.83,5.44-18.06,7.32
	c-6.23,1.92-12.65,3.15-19.1,3.98c-6.46,0.81-13,1.11-19.51,0.85c-6.51-0.3-13.01-1.15-19.37-2.61c-6.35-1.47-12.59-3.54-18.45-6.42
	c-2.93-1.43-5.78-3.03-8.52-4.8c-2.74-1.78-5.33-3.74-7.86-5.77c-2.53-2.04-4.99-4.15-7.33-6.4C36.79,52.3,34.52,49.94,32.74,47.23z
	"/>
<g>
	<path class="st0" d="M27.38,31.31v25.64h-7.08V31.31h-9.79v-6.52h26.65v6.52H27.38z"/>
	<path class="st0" d="M74.07,47.32c-0.86,2.01-2.04,3.77-3.56,5.28c-1.52,1.52-3.32,2.71-5.42,3.58c-2.1,0.87-4.39,1.31-6.87,1.31
		c-2.48,0-4.76-0.44-6.85-1.31c-2.08-0.87-3.88-2.05-5.4-3.54c-1.52-1.49-2.7-3.23-3.54-5.24c-0.84-2.01-1.26-4.16-1.26-6.46v-0.09
		c0-2.3,0.43-4.45,1.29-6.46c0.86-2.01,2.04-3.77,3.56-5.28c1.52-1.52,3.32-2.71,5.42-3.58c2.1-0.87,4.39-1.31,6.87-1.31
		c2.48,0,4.76,0.44,6.85,1.31c2.08,0.87,3.88,2.05,5.4,3.54c1.52,1.49,2.7,3.23,3.54,5.24c0.84,2.01,1.26,4.16,1.26,6.46v0.09
		C75.36,43.16,74.93,45.32,74.07,47.32z M67.96,40.87c0-1.38-0.24-2.68-0.71-3.91c-0.48-1.23-1.15-2.3-2.02-3.22
		s-1.91-1.65-3.1-2.18c-1.19-0.54-2.5-0.8-3.91-0.8c-1.44,0-2.75,0.26-3.93,0.78c-1.18,0.52-2.19,1.24-3.03,2.16
		c-0.84,0.92-1.5,1.98-1.98,3.19c-0.48,1.21-0.71,2.5-0.71,3.88v0.09c0,1.38,0.24,2.68,0.71,3.91c0.47,1.23,1.15,2.3,2.02,3.22
		s1.9,1.65,3.08,2.18c1.18,0.54,2.49,0.8,3.93,0.8c1.41,0,2.71-0.26,3.91-0.78c1.19-0.52,2.21-1.24,3.06-2.16
		c0.84-0.92,1.5-1.98,1.98-3.19c0.47-1.21,0.71-2.5,0.71-3.88V40.87z"/>
	<path class="st0" d="M108.19,49.32c-0.66,1.81-1.6,3.32-2.83,4.53c-1.23,1.21-2.71,2.11-4.46,2.71s-3.69,0.9-5.84,0.9
		c-4.32,0-7.72-1.19-10.2-3.58s-3.72-5.96-3.72-10.71V24.78h7.08v18.2c0,2.64,0.61,4.62,1.84,5.95c1.22,1.33,2.92,2,5.1,2
		c2.17,0,3.88-0.64,5.1-1.93c1.22-1.29,1.84-3.22,1.84-5.79V24.78h7.08v18.15C109.17,45.38,108.84,47.51,108.19,49.32z"/>
	<path class="st0" d="M135.92,56.95l-6.89-10.29h-5.56v10.29h-7.08V24.78h14.7c3.83,0,6.81,0.93,8.94,2.8
		c2.13,1.87,3.19,4.47,3.19,7.81v0.09c0,2.6-0.64,4.73-1.91,6.36c-1.27,1.64-2.93,2.84-4.99,3.61l7.86,11.49H135.92z M136.05,35.77
		c0-1.53-0.49-2.68-1.47-3.45c-0.98-0.77-2.34-1.15-4.09-1.15h-7.03v9.24h7.17c1.75,0,3.09-0.41,4.02-1.24
		c0.93-0.83,1.4-1.93,1.4-3.31V35.77z"/>
	<path class="st0" d="M171.99,51.69c-0.58,1.24-1.38,2.28-2.42,3.12c-1.04,0.84-2.27,1.49-3.7,1.93c-1.44,0.44-3.03,0.67-4.77,0.67
		c-2.45,0-4.86-0.42-7.21-1.26s-4.5-2.14-6.43-3.88l4.18-5.01c1.47,1.19,2.98,2.14,4.53,2.85c1.55,0.71,3.24,1.06,5.08,1.06
		c1.47,0,2.61-0.27,3.42-0.8c0.81-0.54,1.22-1.28,1.22-2.23v-0.09c0-0.46-0.08-0.87-0.25-1.22c-0.17-0.35-0.49-0.68-0.97-0.99
		c-0.48-0.31-1.14-0.61-1.98-0.92c-0.85-0.31-1.94-0.63-3.29-0.97c-1.63-0.4-3.1-0.84-4.42-1.33c-1.32-0.49-2.44-1.09-3.36-1.81
		c-0.92-0.72-1.64-1.62-2.14-2.69c-0.51-1.07-0.76-2.4-0.76-4v-0.09c0-1.47,0.27-2.79,0.82-3.97c0.55-1.18,1.32-2.2,2.31-3.06
		c0.99-0.86,2.17-1.52,3.54-1.98c1.37-0.46,2.89-0.69,4.54-0.69c2.36,0,4.53,0.35,6.5,1.06c1.98,0.71,3.79,1.72,5.44,3.03
		l-3.68,5.33c-1.44-0.98-2.85-1.75-4.23-2.32c-1.38-0.57-2.76-0.85-4.14-0.85s-2.41,0.27-3.1,0.8c-0.69,0.54-1.03,1.2-1.03,2v0.09
		c0,0.52,0.1,0.97,0.3,1.36c0.2,0.38,0.56,0.73,1.08,1.03c0.52,0.31,1.24,0.6,2.14,0.87c0.91,0.28,2.05,0.6,3.43,0.96
		c1.63,0.43,3.08,0.91,4.35,1.45c1.27,0.54,2.35,1.18,3.23,1.93c0.88,0.75,1.54,1.63,1.98,2.64c0.44,1.01,0.67,2.22,0.67,3.63v0.09
		C172.86,49.03,172.57,50.45,171.99,51.69z"/>
</g>
</svg>
