<?xml version="1.0" encoding="utf-8"?>
<!-- Generator: Adobe Illustrator 23.0.6, SVG Export Plug-In . SVG Version: 6.00 Build 0)  -->
<svg version="1.1" id="Capa_1" xmlns="http://www.w3.org/2000/svg" xmlns:xlink="http://www.w3.org/1999/xlink" x="0px" y="0px"
	 viewBox="0 0 40 40" style="enable-background:new 0 0 40 40;" xml:space="preserve">
<style type="text/css">
	.st0{fill:#FFFFFF;}
</style>
<g id="XMLID_11309_">
	<path id="XMLID_11313_" class="st0" d="M26.69,9.2C22.6,4.16,15.18,3.4,10.15,7.48c-2.44,1.98-3.96,4.79-4.28,7.92
		c-0.32,3.12,0.59,6.19,2.57,8.63s4.79,3.96,7.92,4.28c0.41,0.04,0.82,0.06,1.23,0.06c1.72,0,3.4-0.38,4.94-1.1l7.98,9.83
		c0.15,0.19,0.38,0.29,0.61,0.29c0.17,0,0.35-0.06,0.49-0.17l3.17-2.58c0.16-0.13,0.26-0.32,0.28-0.53s-0.04-0.41-0.17-0.57
		l-7.97-9.81c1.3-1.7,2.11-3.73,2.33-5.91C29.58,14.7,28.67,11.64,26.69,9.2z M27.71,17.66c-0.28,2.71-1.6,5.15-3.71,6.86
		c-2.11,1.72-4.77,2.51-7.48,2.23s-5.15-1.6-6.86-3.71c-1.72-2.11-2.51-4.77-2.23-7.48s1.6-5.15,3.71-6.86
		c1.89-1.53,4.16-2.28,6.42-2.28c2.97,0,5.91,1.29,7.92,3.76C27.2,12.3,27.99,14.95,27.71,17.66z M31.23,35.51l-7.31-9
		c0.36-0.23,0.72-0.49,1.06-0.77c0.32-0.26,0.62-0.53,0.91-0.82l7.31,9L31.23,35.51z"/>
	<path id="XMLID_11310_" class="st0" d="M18.45,8.05c-2.29-0.24-4.53,0.43-6.31,1.88s-2.9,3.51-3.13,5.79
		c-0.24,2.29,0.43,4.53,1.88,6.31c1.7,2.09,4.18,3.18,6.69,3.18c1.91,0,3.83-0.63,5.42-1.92c3.68-2.99,4.25-8.42,1.25-12.11
		C22.79,9.4,20.74,8.29,18.45,8.05z M22.01,22.08c-3.02,2.45-7.46,1.99-9.91-1.03c-1.19-1.46-1.73-3.3-1.54-5.17
		s1.11-3.56,2.57-4.74c1.27-1.03,2.82-1.58,4.43-1.58c0.25,0,0.49,0.01,0.74,0.04c1.87,0.19,3.56,1.11,4.74,2.57
		C25.48,15.18,25.02,19.63,22.01,22.08z"/>
</g>
</svg>
