<svg id="Layer_1" data-name="Layer 1" xmlns="http://www.w3.org/2000/svg" viewBox="0 0 382 382"><defs><style>.cls-1{fill:#233fff;}.cls-2{fill:#fff;}</style></defs><title>linkedin</title><circle class="cls-1" cx="191" cy="191" r="191"/><rect class="cls-2" x="93.17" y="154.18" width="45.73" height="145.05" rx="7.31"/><circle class="cls-2" cx="116.04" cy="112.33" r="29.56"/><path class="cls-2" d="M301.51,292.51a6.72,6.72,0,0,1-6.72,6.72H261.4a6.72,6.72,0,0,1-6.72-6.72V231.33c0-9.12,2.68-40-23.85-40-20.58,0-24.75,21.13-25.59,30.61v70.56a6.72,6.72,0,0,1-6.72,6.72H166.23a6.72,6.72,0,0,1-6.72-6.72V160.9a6.72,6.72,0,0,1,6.72-6.72h32.29a6.72,6.72,0,0,1,6.72,6.72v11.38c7.63-11.45,19-20.29,43.12-20.29,53.46,0,53.15,49.95,53.15,77.4v63.12Z"/></svg>