<svg id="Layer_1" data-name="Layer 1" xmlns="http://www.w3.org/2000/svg" xmlns:xlink="http://www.w3.org/1999/xlink" viewBox="0 0 382 382"><defs><style>.cls-1,.cls-5{fill:none;}.cls-2{clip-path:url(#clip-path);}.cls-3{fill:#fff;}.cls-4{fill:#233fff;}.cls-5{stroke:#233fff;stroke-width:40px;}</style><clipPath id="clip-path"><rect class="cls-1" width="382" height="382"/></clipPath></defs><title>linkedin</title><g class="cls-2"><path class="cls-3" d="M190.92,195.55c-16.82,0-30.5-13.47-30.5-30a30.5,30.5,0,0,1,61,0c0,16.56-13.68,30-30.5,30m0-92.14c-34.78,0-63.08,27.87-63.08,62.12,0,55.3,48.94,95.22,63.08,105.59C205.05,260.75,254,220.83,254,165.53c0-34.25-28.29-62.12-63.07-62.12"/><path class="cls-4" d="M233.36,260.42a205.25,205.25,0,0,1-38.46,34.71,7.32,7.32,0,0,1-8,0,205.25,205.25,0,0,1-38.46-34.71c-25.33-29.23-38.72-61.58-38.72-93.56a81.17,81.17,0,1,1,162.33,0c0,32-13.38,64.33-38.72,93.56M191,0C85.51,0,0,85.51,0,191S85.51,382,191,382s191-85.52,191-191S296.49,0,191,0"/><path class="cls-3" d="M190.92,145.57a18.73,18.73,0,1,0,19,18.73,18.88,18.88,0,0,0-19-18.73"/><path class="cls-5" d="M190.92,145.57a18.73,18.73,0,1,0,19,18.73A18.88,18.88,0,0,0,190.92,145.57Z"/></g></svg>