<svg id="Layer_1" data-name="Layer 1" xmlns="http://www.w3.org/2000/svg" xmlns:xlink="http://www.w3.org/1999/xlink" viewBox="0 0 382 382"><defs><style>.cls-1{fill:none;}.cls-2{clip-path:url(#clip-path);}.cls-3{fill:#233fff;}</style><clipPath id="clip-path"><rect class="cls-1" width="382" height="382"/></clipPath></defs><title>linkedin</title><g class="cls-2"><path class="cls-3" d="M276.37,153.28l-80.55,71a7.27,7.27,0,0,1-9.62,0l-80.56-71a7.28,7.28,0,1,1,9.63-10.92L191,209.11l75.74-66.75a7.28,7.28,0,1,1,9.62,10.92M286.11,126H95.9a7.28,7.28,0,0,0-7.28,7.27V248.72A7.29,7.29,0,0,0,95.9,256H286.11a7.29,7.29,0,0,0,7.28-7.28V133.27a7.29,7.29,0,0,0-7.28-7.27"/><path class="cls-3" d="M307.94,248.73a21.86,21.86,0,0,1-21.83,21.83H95.9a21.86,21.86,0,0,1-21.83-21.83V133.27A21.84,21.84,0,0,1,95.9,111.45H286.11a21.85,21.85,0,0,1,21.83,21.82ZM191,0C85.51,0,0,85.51,0,191S85.51,382,191,382s191-85.51,191-191S296.49,0,191,0"/></g></svg>