<svg id="Layer_1" data-name="Layer 1" xmlns="http://www.w3.org/2000/svg" xmlns:xlink="http://www.w3.org/1999/xlink" viewBox="0 0 382 382"><defs><style>.cls-1{fill:none;}.cls-2{clip-path:url(#clip-path);}.cls-3{fill:#233fff;}</style><clipPath id="clip-path"><rect class="cls-1" width="382" height="382"/></clipPath></defs><title>linkedin</title><g class="cls-2"><path class="cls-3" d="M282.66,195.85a7.27,7.27,0,0,1-7.28-7.27A77.26,77.26,0,0,0,198.1,111.3a7.28,7.28,0,0,1,0-14.55,91.83,91.83,0,0,1,91.83,91.83,7.27,7.27,0,0,1-7.27,7.27M190.83,146.3A7.27,7.27,0,0,1,198.1,139a49.63,49.63,0,0,1,49.56,49.56,7.28,7.28,0,0,1-14.56,0,35,35,0,0,0-35-35,7.27,7.27,0,0,1-7.27-7.28m72.66,128.45c-3.92,11.64-10.9,20-20.19,24.3a33.43,33.43,0,0,1-14,3A43.13,43.13,0,0,1,213,298.66c-27.72-11.29-52-27.1-72.11-47l-.15-.14c-19.9-20.16-35.73-44.44-47-72.2-4.38-10.77-4.51-21.24-.38-30.26,4.26-9.29,12.66-16.27,24.29-20.19a22,22,0,0,1,15,.08c10.81,4,33.42,34.77,34.05,46.39.57,11.13-7.67,16.76-11.64,19.47a7.28,7.28,0,0,1-8.21-12c4.68-3.19,5.42-4.64,5.32-6.68-.73-6.23-18.91-31-24.61-33.52a7.46,7.46,0,0,0-5.3.08c-7.72,2.6-13.15,6.91-15.69,12.46-2.43,5.28-2.2,11.74.62,18.71,10.57,25.93,25.33,48.6,43.84,67.37l0,0c18.78,18.56,41.48,33.33,67.46,43.92,7,2.82,13.43,3.05,18.7.63,5.55-2.55,9.86-8,12.47-15.71a7.48,7.48,0,0,0,.06-5.31c-2.48-5.68-27.28-23.86-33.58-24.59-2-.1-3.42.64-6.61,5.32a7.28,7.28,0,1,1-12-8.22c2.72-4,8.36-12.21,19.46-11.64,11.64.64,42.42,23.25,46.41,34.09a21.92,21.92,0,0,1,.07,15M191,0C85.51,0,0,85.52,0,191S85.51,382,191,382s191-85.52,191-191S296.49,0,191,0"/></g></svg>