<svg id="Capa_1" data-name="Capa 1" xmlns="http://www.w3.org/2000/svg" viewBox="0 0 85.04 34.89"><defs><style>.cls-1{fill:#e40520;}.cls-2,.cls-3{fill:#fff;}.cls-3{fill-rule:evenodd;}</style></defs><title>universidad-rey-juan-carlos [Convertido]</title><rect class="cls-1" x="2.27" y="10.03" width="11.31" height="1.88"/><path class="cls-1" d="M19.89,17.12a2.25,2.25,0,1,1,2.24,2.25A2.24,2.24,0,0,1,19.89,17.12Z" transform="translate(-14.17 -10.9)"/><path class="cls-1" d="M14.17,17.12a2.25,2.25,0,1,1,2.25,2.25A2.24,2.24,0,0,1,14.17,17.12Z" transform="translate(-14.17 -10.9)"/><path class="cls-1" d="M25.53,17.12a2.25,2.25,0,1,1,2.25,2.25A2.24,2.24,0,0,1,25.53,17.12Z" transform="translate(-14.17 -10.9)"/><path class="cls-1" d="M20.7,12.3a1.4,1.4,0,1,1,2.79,0,1.4,1.4,0,0,1-2.79,0Z" transform="translate(-14.17 -10.9)"/><path class="cls-2" d="M14.29,25.8h3.86V36.63c0,2.54,1.33,4.58,3.88,4.58,3,0,4.22-2.41,4.22-4.94V25.8h3.93V43.65H26.25V41.37c-.69.84-2.64,2.93-5.08,2.93-3.06,0-3.7-.74-4.13-.95a6.76,6.76,0,0,1-2.75-5.74Z" transform="translate(-14.17 -10.9)"/><path class="cls-3" d="M39.12,37.75h.61c.92,0,1.29.38,1.3,1s-.28,1.08-1.3,1.08h-.61Zm-.95-.82v6.63h.95V40.68h.4c.48,0,.88.16,1.75,1.52l.88,1.36h1.13c-.45-.64-.62-.86-.9-1.31a5.36,5.36,0,0,0-1.47-1.84A1.67,1.67,0,0,0,42,38.79c0-1.15-.83-1.86-2.17-1.86Z" transform="translate(-14.17 -10.9)"/><path class="cls-3" d="M44.56,40.93a1.13,1.13,0,0,1,1.18-1.07,1,1,0,0,1,1,1.07Zm3,1.36a2.77,2.77,0,0,1-1.52.53,1.37,1.37,0,0,1-1.47-1.31h3.07c0-1.62-.74-2.4-1.89-2.4a2,2,0,0,0-2,2.21,2.15,2.15,0,0,0,2.12,2.32,2.81,2.81,0,0,0,1.73-.51Z" transform="translate(-14.17 -10.9)"/><polygon class="cls-2" points="37.86 28.29 36.89 28.29 35.77 30.75 34.59 28.29 33.61 28.29 35.3 31.72 33.81 34.89 34.77 34.89 37.86 28.29"/><path class="cls-2" d="M56.42,36.93h-1v6.42c0,1-.09,1.54-1.1,1.54h-.24l.17.88.29,0c1.33,0,1.83-.92,1.83-2.16Z" transform="translate(-14.17 -10.9)"/><path class="cls-2" d="M61.21,43.56V39.19h-.87v3.12a1.28,1.28,0,0,1-1,.61c-.59,0-.89-.34-.89-1V39.19h-.86v2.72c0,1.1.62,1.73,1.5,1.73A1.86,1.86,0,0,0,60.34,43v.56Z" transform="translate(-14.17 -10.9)"/><path class="cls-3" d="M64.33,42.67a1.11,1.11,0,0,1-.76.36.59.59,0,0,1-.62-.61c0-.51.64-.77,1.38-1Zm1.48.11a1.09,1.09,0,0,1-.45.23c-.11,0-.17-.06-.17-.22V40.55a1.39,1.39,0,0,0-1.58-1.44,1.79,1.79,0,0,0-1.45.59v.94a1.82,1.82,0,0,1,1.38-.72c.52,0,.79.23.79.77v.23l-.77.28c-.7.25-1.49.51-1.49,1.38a1,1,0,0,0,1.07,1.06,1.88,1.88,0,0,0,1.18-.44c.07.31.28.44.66.44a1.33,1.33,0,0,0,.83-.34Z" transform="translate(-14.17 -10.9)"/><path class="cls-2" d="M67.42,39.19h-.86v4.37h.86V40.43a1.42,1.42,0,0,1,1.09-.63c.53,0,.85.42.85,1.06v2.7h.87V40.87c0-1.2-.66-1.76-1.49-1.76a1.68,1.68,0,0,0-1.3.66h0Z" transform="translate(-14.17 -10.9)"/><path class="cls-2" d="M79.89,37.39a5.73,5.73,0,0,0-2.27-.55A3.46,3.46,0,0,0,74,40.34a3.39,3.39,0,0,0,3.58,3.3,4.86,4.86,0,0,0,2.4-.58V42a4.32,4.32,0,0,1-2.31.75A2.48,2.48,0,0,1,75,40.25a2.53,2.53,0,0,1,2.65-2.53,4.35,4.35,0,0,1,2.28.69Z" transform="translate(-14.17 -10.9)"/><path class="cls-3" d="M82.9,42.67a1.11,1.11,0,0,1-.76.36.59.59,0,0,1-.62-.61c0-.51.64-.77,1.38-1Zm1.48.11a1.09,1.09,0,0,1-.45.23c-.11,0-.17-.06-.17-.22V40.55a1.39,1.39,0,0,0-1.58-1.44,1.79,1.79,0,0,0-1.45.59v.94a1.82,1.82,0,0,1,1.38-.72c.52,0,.79.23.79.77v.23l-.77.28c-.7.25-1.49.51-1.49,1.38a1,1,0,0,0,1.07,1.06,1.88,1.88,0,0,0,1.18-.44c.07.31.28.44.66.44a1.33,1.33,0,0,0,.83-.34Z" transform="translate(-14.17 -10.9)"/><path class="cls-2" d="M85.21,39.19v4.37h.86V41.27a1.22,1.22,0,0,1,1.06-1.34,1.44,1.44,0,0,1,.8.43l.46-.75a1.51,1.51,0,0,0-1-.5c-.41,0-.82.32-1.26,1.09h0v-1Z" transform="translate(-14.17 -10.9)"/><rect class="cls-2" x="74.84" y="26.03" width="0.87" height="6.62"/><path class="cls-3" d="M93.15,39.88a1.42,1.42,0,0,1,1.48,1.46,1.45,1.45,0,1,1-1.48-1.46Zm0-.77a2.27,2.27,0,1,0,2.36,2.22A2.23,2.23,0,0,0,93.16,39.11Z" transform="translate(-14.17 -10.9)"/><path class="cls-2" d="M99,39.47a2.66,2.66,0,0,0-1.28-.36c-.88,0-1.44.44-1.44,1.19,0,1.17,2,1.49,2,2.09,0,.31-.29.48-.64.5a2.85,2.85,0,0,1-1.43-.57v.93a3,3,0,0,0,1.52.39,1.3,1.3,0,0,0,1.43-1.28c0-.44-.26-.74-1-1.22s-1.06-.67-1.06-.87.23-.4.58-.4a2.38,2.38,0,0,1,1.26.46Z" transform="translate(-14.17 -10.9)"/><path class="cls-2" d="M43.71,25.79h-1v3.86a1.92,1.92,0,0,1-.42,1.44,2.16,2.16,0,0,1-1.55.54,1.94,1.94,0,0,1-1.43-.57c-.3-.3-.4-.61-.4-1.36V25.79H38v4.12a2.53,2.53,0,0,0,2.76,2.59c2,0,2.94-1.07,2.94-2.69Z" transform="translate(-14.17 -10.9)"/><path class="cls-2" d="M45.75,28.05h-.87v4.36h.87V29.29a1.44,1.44,0,0,1,1.09-.64c.52,0,.85.42.85,1.06v2.7h.87V29.72c0-1.19-.66-1.76-1.49-1.76a1.68,1.68,0,0,0-1.3.67h0Z" transform="translate(-14.17 -10.9)"/><path class="cls-3" d="M50.73,26.73a.52.52,0,0,0-1,0,.52.52,0,1,0,1,0Zm-.09,1.32h-.86v4.36h.86Z" transform="translate(-14.17 -10.9)"/><polygon class="cls-2" points="39.1 21.6 39.39 21.6 41.31 17.15 40.39 17.15 39.24 19.83 38.07 17.15 37.13 17.15 39.1 21.6"/><path class="cls-3" d="M56.61,29.79a1.14,1.14,0,0,1,1.18-1.08,1,1,0,0,1,1,1.08Zm3,1.36a2.75,2.75,0,0,1-1.52.52,1.37,1.37,0,0,1-1.47-1.31h3.07c0-1.61-.74-2.4-1.89-2.4a2,2,0,0,0-2,2.22,2.16,2.16,0,0,0,2.12,2.32A2.81,2.81,0,0,0,59.58,32Z" transform="translate(-14.17 -10.9)"/><path class="cls-2" d="M60.65,28.05v4.36h.86V30.13a1.22,1.22,0,0,1,1.06-1.34,1.46,1.46,0,0,1,.81.43l.45-.75a1.53,1.53,0,0,0-1-.51c-.4,0-.82.33-1.26,1.09h0v-1Z" transform="translate(-14.17 -10.9)"/><path class="cls-2" d="M67,28.32A2.77,2.77,0,0,0,65.69,28c-.88,0-1.44.45-1.44,1.2,0,1.17,2,1.49,2,2.09,0,.31-.29.47-.64.49a2.76,2.76,0,0,1-1.43-.57v.93a3,3,0,0,0,1.52.4,1.3,1.3,0,0,0,1.43-1.28c0-.45-.26-.74-1-1.22s-1.06-.68-1.06-.87.23-.41.58-.41a2.41,2.41,0,0,1,1.26.47Z" transform="translate(-14.17 -10.9)"/><path class="cls-3" d="M69.14,26.73a.52.52,0,0,0-1,0,.52.52,0,1,0,1,0Zm-.09,1.32h-.86v4.36h.86Z" transform="translate(-14.17 -10.9)"/><path class="cls-3" d="M73.2,31.68h-.87c-1,0-1.34-.61-1.34-1.42a1.38,1.38,0,0,1,1.4-1.52,2,2,0,0,1,.81.17Zm.86-5.89H73.2v2.35a2.49,2.49,0,0,0-.91-.18,2.09,2.09,0,0,0-2.18,2.17,2.05,2.05,0,0,0,2.12,2.28h1.83Z" transform="translate(-14.17 -10.9)"/><path class="cls-3" d="M77.14,31.53a1.13,1.13,0,0,1-.76.36.59.59,0,0,1-.62-.61c0-.52.64-.77,1.38-1Zm1.48.11a1,1,0,0,1-.45.23c-.11,0-.17-.06-.17-.22V29.4A1.4,1.4,0,0,0,76.42,28a1.79,1.79,0,0,0-1.45.6v.94a1.81,1.81,0,0,1,1.38-.72c.53,0,.79.22.79.77v.23l-.77.27c-.7.26-1.48.52-1.48,1.38A1,1,0,0,0,76,32.5a1.9,1.9,0,0,0,1.18-.45c.08.31.28.45.66.45a1.37,1.37,0,0,0,.83-.34Z" transform="translate(-14.17 -10.9)"/><path class="cls-3" d="M82.29,31.68h-.87c-1,0-1.33-.61-1.33-1.42a1.38,1.38,0,0,1,1.4-1.52,1.92,1.92,0,0,1,.8.17Zm.87-5.89h-.87v2.35a2.49,2.49,0,0,0-.91-.18,2.09,2.09,0,0,0-2.17,2.17,2,2,0,0,0,2.11,2.28h1.84Z" transform="translate(-14.17 -10.9)"/></svg>