<?xml version="1.0" encoding="utf-8"?>
<!-- Generator: Adobe Illustrator 24.0.1, SVG Export Plug-In . SVG Version: 6.00 Build 0)  -->
<svg version="1.1" id="Capa_1" xmlns="http://www.w3.org/2000/svg" xmlns:xlink="http://www.w3.org/1999/xlink" x="0px" y="0px"
	 viewBox="0 0 435 60" style="enable-background:new 0 0 435 60;" xml:space="preserve">
<style type="text/css">
	.st0{fill:#F6A200;}
	.st1{fill:#FFFFFF;}
	.st2{font-family:'Montserrat-Medium';}
	.st3{font-size:17px;}
</style>
<title>uninit</title>
<g>
	<path class="st0" d="M58.4,26.9l0-26.9H1.7v25.9C1.6,28,1.9,30,2.5,32c3.8,12.9,13.9,23.1,26.8,27c0,0,23.6-3.8,28.7-28.6
		C58.2,29.2,58.4,28.1,58.4,26.9z"/>
	<path class="st1" d="M39.2,19.9c-1.5,0.1-3,0.4-4.4,0.8c-0.3-9-6.3-15.4-15.5-15.4c-0.6,0-1.1,0-1.7,0.1l0,0
		c-5,5.6-7.9,12.8-8.3,20.3c0,0.5,0,1.5,0,2.2c0,12,9.7,21.8,21.7,21.8c8.7,0,16.7-4.9,19.7-12.5c0.6-1.6,1-3.4,1-5.1
		C51.5,25.4,45.9,19.9,39.2,19.9z M38,23.8c3-0.1,5.5,2.3,5.6,5.3c0.1,3-2.3,5.5-5.3,5.6s-5.5-2.3-5.6-5.3c0,0,0-0.1,0-0.1
		C32.7,26.3,35,23.9,38,23.8C38,23.8,38,23.8,38,23.8z M13.3,23.3L13.3,23.3c0.1-1.9,0.5-3.8,1.1-5.6c1-3.2,2.7-6.1,5.1-8.5h0.6
		c6.1,0.1,11.1,5.1,11,11.2c0,0,0,0,0,0c0,1.3-0.2,2.7-0.7,3.9l0,0c-3.8-4.9-10.8-5.9-15.8-2.1C14.2,22.6,13.7,23,13.3,23.3
		L13.3,23.3z M20.8,36.7c-0.7,1.8-0.9,3.8-0.6,5.7c-1.1-0.9-2.2-1.8-3.2-2.8c-1.9-2.1-3.1-4.6-3.5-7.4l0.1,0.4c0-0.3-0.1-0.7-0.1-1
		c0-4.4,3.5-8,7.9-8c4.3-0.1,7.8,3.2,7.9,7.5c0,0.1,0,0.1,0,0.2C26.3,30.9,22.3,33,20.8,36.7z M32.8,46c-2.1,0.2-4.1,0-6.1-0.7
		c-2.6-0.9-3.7-4.2-2.5-7c0.9-2.5,3.6-3.8,6.2-3.1l0,0c0.9,0.3,1.8,0.7,2.6,1.3c0.4,0.3,0.7,0.6,1,0.9l0,0c-0.3,0.4-0.5,0.8-0.7,1.2
		c-1.1,2.4-0.5,5.3,1.6,6.9l0,0C34.2,45.7,33.5,45.9,32.8,46L32.8,46z M44.4,40.1c-1.2,1.3-2.5,2.3-3.9,3.3
		c-0.4,0.3-0.9,0.4-1.4,0.4c-1.5,0-2.7-1.2-2.7-2.7c0,0,0,0,0,0c0-1.4,1-2.5,2.4-2.7c1.7-0.3,3.3-1,4.7-2c2.4-1.7,3.7-4.6,3.4-7.5
		c0-0.1,0-0.2,0-0.3s0,0,0.1,0C49.2,30.7,48,35.9,44.4,40.1L44.4,40.1z"/>
</g>
<g>
	<defs>
		<rect id="SVGID_1_" x="-929.5" y="-1756" width="1920" height="3572"/>
	</defs>
	<clipPath id="SVGID_2_">
		<use xlink:href="#SVGID_1_"  style="overflow:visible;"/>
	</clipPath>
	<g style="clip-path:url(#SVGID_2_);">
		<text transform="matrix(1 0 0 1 -564.5 -1711)"><tspan x="0" y="0" class="st1 st2" style="font-size:18px;">CENTRO DE EDU</tspan><tspan x="156.2" y="0" class="st1 st2" style="font-size:18px;">C</tspan><tspan x="169" y="0" class="st1 st2" style="font-size:18px;">A</tspan><tspan x="182" y="0" class="st1 st2" style="font-size:18px;">CIÓN SU</tspan><tspan x="260.5" y="0" class="st1 st2" style="font-size:18px;">P</tspan><tspan x="273.4" y="0" class="st1 st2" style="font-size:18px;">ERIOR DE</tspan></text>
	</g>
	<g style="clip-path:url(#SVGID_2_);">
		<text transform="matrix(1 0 0 1 -564.5 -1689)"><tspan x="0" y="0" class="st1 st2" style="font-size:18px;">N</tspan><tspan x="14.6" y="0" class="st1 st2" style="font-size:18px;">E</tspan><tspan x="26.6" y="0" class="st1 st2" style="font-size:18px;">GOCIO</tspan><tspan x="89.4" y="0" class="st1 st2" style="font-size:18px;">S</tspan><tspan x="100.9" y="0" class="st1 st2" style="font-size:18px;">, INN</tspan><tspan x="144.6" y="0" class="st1 st2" style="font-size:18px;">O</tspan><tspan x="159.4" y="0" class="st1 st2" style="font-size:18px;">V</tspan><tspan x="171.5" y="0" class="st1 st2" style="font-size:18px;">A</tspan><tspan x="184.5" y="0" class="st1 st2" style="font-size:18px;">CIÓN Y T</tspan><tspan x="264.8" y="0" class="st1 st2" style="font-size:18px;">E</tspan><tspan x="276.8" y="0" class="st1 st2" style="font-size:18px;">CNO</tspan><tspan x="319.5" y="0" class="st1 st2" style="font-size:18px;">L</tspan><tspan x="330" y="0" class="st1 st2" style="font-size:18px;">OGÍA</tspan></text>
	</g>
</g>
<text transform="matrix(1 0 0 1 77 23.5469)"><tspan x="0" y="0" class="st1 st2 st3">CENTRO DE EDUCACIÓN SUPERIOR DE</tspan><tspan x="0" y="20.4" class="st1 st2 st3">NEGOCIOS, INNOVACIÓN Y TECNOLOGÍA</tspan></text>
</svg>
